<mxfile host="app.diagrams.net" modified="2022-04-08T15:51:22.586Z" agent="5.0 (Windows)" etag="d2M0560ex2v-RchGDJyG" version="17.4.0" type="github">
  <diagram id="Cq71dIn0JD1J3Re9PuSb" name="Page-1">
    <mxGraphModel dx="532" dy="275" grid="1" gridSize="10" guides="1" tooltips="1" connect="1" arrows="1" fold="1" page="1" pageScale="1" pageWidth="827" pageHeight="1169" math="0" shadow="0">
      <root>
        <mxCell id="0" />
        <mxCell id="1" parent="0" />
        <mxCell id="_EMdgMbQJmPedWMtAMaf-27" value="" style="rounded=0;whiteSpace=wrap;html=1;fillColor=#f5f5f5;strokeColor=#666666;fontColor=#333333;" vertex="1" parent="1">
          <mxGeometry x="172" y="170" width="484" height="180" as="geometry" />
        </mxCell>
        <mxCell id="_EMdgMbQJmPedWMtAMaf-6" value="" style="rounded=0;whiteSpace=wrap;html=1;fillColor=#f8cecc;strokeColor=#b85450;" vertex="1" parent="1">
          <mxGeometry x="172" y="777.5" width="484" height="452.5" as="geometry" />
        </mxCell>
        <mxCell id="_EMdgMbQJmPedWMtAMaf-5" value="" style="rounded=0;whiteSpace=wrap;html=1;fillColor=#ffe6cc;strokeColor=#d79b00;" vertex="1" parent="1">
          <mxGeometry x="172" y="570" width="484" height="210" as="geometry" />
        </mxCell>
        <mxCell id="_EMdgMbQJmPedWMtAMaf-4" value="" style="rounded=0;whiteSpace=wrap;html=1;fillColor=#dae8fc;strokeColor=#6c8ebf;" vertex="1" parent="1">
          <mxGeometry x="172" y="350" width="484" height="225" as="geometry" />
        </mxCell>
        <mxCell id="Gl-4RDtrzEMA0AwHz98H-19" style="edgeStyle=orthogonalEdgeStyle;rounded=0;orthogonalLoop=1;jettySize=auto;html=1;exitX=0.5;exitY=1;exitDx=0;exitDy=0;entryX=0.5;entryY=0;entryDx=0;entryDy=0;" parent="1" source="Gl-4RDtrzEMA0AwHz98H-1" target="Gl-4RDtrzEMA0AwHz98H-3" edge="1">
          <mxGeometry relative="1" as="geometry" />
        </mxCell>
        <mxCell id="_EMdgMbQJmPedWMtAMaf-25" style="edgeStyle=orthogonalEdgeStyle;rounded=0;orthogonalLoop=1;jettySize=auto;html=1;exitX=0.5;exitY=0;exitDx=0;exitDy=0;endArrow=none;endFill=0;startArrow=classic;startFill=1;" edge="1" parent="1" source="Gl-4RDtrzEMA0AwHz98H-1">
          <mxGeometry relative="1" as="geometry">
            <mxPoint x="410" y="330" as="targetPoint" />
            <Array as="points">
              <mxPoint x="307" y="340" />
              <mxPoint x="410" y="340" />
            </Array>
          </mxGeometry>
        </mxCell>
        <mxCell id="Gl-4RDtrzEMA0AwHz98H-1" value="收集感性意向词汇" style="rounded=0;whiteSpace=wrap;html=1;" parent="1" vertex="1">
          <mxGeometry x="232" y="370" width="150" height="40" as="geometry" />
        </mxCell>
        <mxCell id="6PbXFLIH7fYBOyMqMP_e-1" style="edgeStyle=orthogonalEdgeStyle;rounded=0;orthogonalLoop=1;jettySize=auto;html=1;exitX=0.5;exitY=1;exitDx=0;exitDy=0;" parent="1" source="Gl-4RDtrzEMA0AwHz98H-2" target="Gl-4RDtrzEMA0AwHz98H-5" edge="1">
          <mxGeometry relative="1" as="geometry" />
        </mxCell>
        <mxCell id="_EMdgMbQJmPedWMtAMaf-26" style="edgeStyle=orthogonalEdgeStyle;rounded=0;orthogonalLoop=1;jettySize=auto;html=1;exitX=0.5;exitY=0;exitDx=0;exitDy=0;endArrow=none;endFill=0;startArrow=classic;startFill=1;" edge="1" parent="1" source="Gl-4RDtrzEMA0AwHz98H-2">
          <mxGeometry relative="1" as="geometry">
            <mxPoint x="420" y="320" as="targetPoint" />
            <Array as="points">
              <mxPoint x="521" y="340" />
              <mxPoint x="410" y="340" />
              <mxPoint x="410" y="320" />
            </Array>
          </mxGeometry>
        </mxCell>
        <mxCell id="Gl-4RDtrzEMA0AwHz98H-2" value="收集产品样本" style="rounded=0;whiteSpace=wrap;html=1;" parent="1" vertex="1">
          <mxGeometry x="446" y="370" width="150" height="40" as="geometry" />
        </mxCell>
        <mxCell id="Gl-4RDtrzEMA0AwHz98H-20" style="edgeStyle=orthogonalEdgeStyle;rounded=0;orthogonalLoop=1;jettySize=auto;html=1;exitX=0.5;exitY=1;exitDx=0;exitDy=0;entryX=0.5;entryY=0;entryDx=0;entryDy=0;" parent="1" source="Gl-4RDtrzEMA0AwHz98H-3" target="Gl-4RDtrzEMA0AwHz98H-4" edge="1">
          <mxGeometry relative="1" as="geometry" />
        </mxCell>
        <mxCell id="Gl-4RDtrzEMA0AwHz98H-3" value="邀请被试进行打分" style="rounded=0;whiteSpace=wrap;html=1;" parent="1" vertex="1">
          <mxGeometry x="232" y="438" width="150" height="40" as="geometry" />
        </mxCell>
        <mxCell id="Gl-4RDtrzEMA0AwHz98H-21" style="edgeStyle=orthogonalEdgeStyle;rounded=0;orthogonalLoop=1;jettySize=auto;html=1;exitX=0.5;exitY=1;exitDx=0;exitDy=0;" parent="1" source="Gl-4RDtrzEMA0AwHz98H-4" target="Gl-4RDtrzEMA0AwHz98H-16" edge="1">
          <mxGeometry relative="1" as="geometry" />
        </mxCell>
        <mxCell id="Gl-4RDtrzEMA0AwHz98H-4" value="获得不同感性意向对审美评价的影响" style="rounded=0;whiteSpace=wrap;html=1;" parent="1" vertex="1">
          <mxGeometry x="232" y="500" width="150" height="40" as="geometry" />
        </mxCell>
        <mxCell id="Gl-4RDtrzEMA0AwHz98H-26" style="edgeStyle=orthogonalEdgeStyle;rounded=0;orthogonalLoop=1;jettySize=auto;html=1;exitX=0.5;exitY=1;exitDx=0;exitDy=0;entryX=0.5;entryY=0;entryDx=0;entryDy=0;" parent="1" source="Gl-4RDtrzEMA0AwHz98H-5" target="Gl-4RDtrzEMA0AwHz98H-10" edge="1">
          <mxGeometry relative="1" as="geometry" />
        </mxCell>
        <mxCell id="Gl-4RDtrzEMA0AwHz98H-5" value="眼动实验" style="rounded=0;whiteSpace=wrap;html=1;" parent="1" vertex="1">
          <mxGeometry x="446" y="439" width="150" height="40" as="geometry" />
        </mxCell>
        <mxCell id="Gl-4RDtrzEMA0AwHz98H-45" style="edgeStyle=orthogonalEdgeStyle;rounded=0;orthogonalLoop=1;jettySize=auto;html=1;exitX=0.5;exitY=1;exitDx=0;exitDy=0;entryX=0.5;entryY=0;entryDx=0;entryDy=0;" parent="1" source="Gl-4RDtrzEMA0AwHz98H-6" target="Gl-4RDtrzEMA0AwHz98H-8" edge="1">
          <mxGeometry relative="1" as="geometry" />
        </mxCell>
        <mxCell id="Gl-4RDtrzEMA0AwHz98H-6" value="建立意向语义与形态关系映射" style="rounded=0;whiteSpace=wrap;html=1;" parent="1" vertex="1">
          <mxGeometry x="331" y="720" width="150" height="40" as="geometry" />
        </mxCell>
        <mxCell id="Gl-4RDtrzEMA0AwHz98H-46" style="edgeStyle=orthogonalEdgeStyle;rounded=0;orthogonalLoop=1;jettySize=auto;html=1;exitX=0.5;exitY=1;exitDx=0;exitDy=0;entryX=0.5;entryY=0;entryDx=0;entryDy=0;" parent="1" source="Gl-4RDtrzEMA0AwHz98H-8" target="Gl-4RDtrzEMA0AwHz98H-11" edge="1">
          <mxGeometry relative="1" as="geometry" />
        </mxCell>
        <mxCell id="Gl-4RDtrzEMA0AwHz98H-8" value="初始种群" style="rounded=0;whiteSpace=wrap;html=1;" parent="1" vertex="1">
          <mxGeometry x="331" y="790" width="150" height="40" as="geometry" />
        </mxCell>
        <mxCell id="Gl-4RDtrzEMA0AwHz98H-23" style="edgeStyle=orthogonalEdgeStyle;rounded=0;orthogonalLoop=1;jettySize=auto;html=1;exitX=0.5;exitY=1;exitDx=0;exitDy=0;entryX=0.5;entryY=0;entryDx=0;entryDy=0;" parent="1" source="Gl-4RDtrzEMA0AwHz98H-10" target="Gl-4RDtrzEMA0AwHz98H-16" edge="1">
          <mxGeometry relative="1" as="geometry" />
        </mxCell>
        <mxCell id="Gl-4RDtrzEMA0AwHz98H-10" value="计算感性意向下设计要素贡献得分" style="rounded=0;whiteSpace=wrap;html=1;" parent="1" vertex="1">
          <mxGeometry x="446" y="500" width="150" height="40" as="geometry" />
        </mxCell>
        <mxCell id="Gl-4RDtrzEMA0AwHz98H-29" value="" style="edgeStyle=orthogonalEdgeStyle;rounded=0;orthogonalLoop=1;jettySize=auto;html=1;" parent="1" source="Gl-4RDtrzEMA0AwHz98H-11" target="Gl-4RDtrzEMA0AwHz98H-28" edge="1">
          <mxGeometry relative="1" as="geometry" />
        </mxCell>
        <mxCell id="Gl-4RDtrzEMA0AwHz98H-11" value="求解适应度值" style="rounded=0;whiteSpace=wrap;html=1;" parent="1" vertex="1">
          <mxGeometry x="331" y="870" width="150" height="40" as="geometry" />
        </mxCell>
        <mxCell id="Gl-4RDtrzEMA0AwHz98H-24" style="edgeStyle=orthogonalEdgeStyle;rounded=0;orthogonalLoop=1;jettySize=auto;html=1;exitX=0.5;exitY=1;exitDx=0;exitDy=0;entryX=0.5;entryY=0;entryDx=0;entryDy=0;" parent="1" source="Gl-4RDtrzEMA0AwHz98H-16" target="Gl-4RDtrzEMA0AwHz98H-17" edge="1">
          <mxGeometry relative="1" as="geometry" />
        </mxCell>
        <mxCell id="Gl-4RDtrzEMA0AwHz98H-16" value="从关键部件提取特征元素" style="rounded=0;whiteSpace=wrap;html=1;" parent="1" vertex="1">
          <mxGeometry x="331" y="590" width="150" height="40" as="geometry" />
        </mxCell>
        <mxCell id="Gl-4RDtrzEMA0AwHz98H-25" style="edgeStyle=orthogonalEdgeStyle;rounded=0;orthogonalLoop=1;jettySize=auto;html=1;exitX=0.5;exitY=1;exitDx=0;exitDy=0;entryX=0.5;entryY=0;entryDx=0;entryDy=0;" parent="1" source="Gl-4RDtrzEMA0AwHz98H-17" target="Gl-4RDtrzEMA0AwHz98H-6" edge="1">
          <mxGeometry relative="1" as="geometry" />
        </mxCell>
        <mxCell id="Gl-4RDtrzEMA0AwHz98H-17" value="对特征元素进行分类" style="rounded=0;whiteSpace=wrap;html=1;" parent="1" vertex="1">
          <mxGeometry x="331" y="650" width="150" height="40" as="geometry" />
        </mxCell>
        <mxCell id="Gl-4RDtrzEMA0AwHz98H-33" style="edgeStyle=orthogonalEdgeStyle;rounded=0;orthogonalLoop=1;jettySize=auto;html=1;exitX=0.5;exitY=1;exitDx=0;exitDy=0;" parent="1" source="Gl-4RDtrzEMA0AwHz98H-28" edge="1">
          <mxGeometry relative="1" as="geometry">
            <mxPoint x="406" y="1090" as="targetPoint" />
          </mxGeometry>
        </mxCell>
        <mxCell id="Gl-4RDtrzEMA0AwHz98H-38" style="edgeStyle=orthogonalEdgeStyle;rounded=0;orthogonalLoop=1;jettySize=auto;html=1;exitX=1;exitY=0.5;exitDx=0;exitDy=0;" parent="1" source="Gl-4RDtrzEMA0AwHz98H-28" target="Gl-4RDtrzEMA0AwHz98H-39" edge="1">
          <mxGeometry relative="1" as="geometry">
            <mxPoint x="531" y="1008" as="targetPoint" />
          </mxGeometry>
        </mxCell>
        <mxCell id="Gl-4RDtrzEMA0AwHz98H-28" value="满足进化终止条件？" style="rhombus;whiteSpace=wrap;html=1;rounded=0;spacingTop=0;spacingBottom=0;spacingRight=10;spacingLeft=10;" parent="1" vertex="1">
          <mxGeometry x="333.5" y="960" width="145" height="95" as="geometry" />
        </mxCell>
        <mxCell id="_EMdgMbQJmPedWMtAMaf-2" style="edgeStyle=orthogonalEdgeStyle;rounded=0;orthogonalLoop=1;jettySize=auto;html=1;exitX=0.5;exitY=1;exitDx=0;exitDy=0;entryX=0.5;entryY=0;entryDx=0;entryDy=0;" edge="1" parent="1" source="Gl-4RDtrzEMA0AwHz98H-34" target="_EMdgMbQJmPedWMtAMaf-1">
          <mxGeometry relative="1" as="geometry" />
        </mxCell>
        <mxCell id="_EMdgMbQJmPedWMtAMaf-11" style="edgeStyle=orthogonalEdgeStyle;rounded=0;orthogonalLoop=1;jettySize=auto;html=1;exitX=0.5;exitY=1;exitDx=0;exitDy=0;entryX=0.5;entryY=0;entryDx=0;entryDy=0;" edge="1" parent="1" source="Gl-4RDtrzEMA0AwHz98H-34" target="_EMdgMbQJmPedWMtAMaf-10">
          <mxGeometry relative="1" as="geometry" />
        </mxCell>
        <mxCell id="Gl-4RDtrzEMA0AwHz98H-34" value="&lt;div&gt;方案建模&lt;/div&gt;" style="whiteSpace=wrap;html=1;rounded=0;spacingTop=0;spacingLeft=10;spacingBottom=0;spacingRight=10;" parent="1" vertex="1">
          <mxGeometry x="346" y="1090" width="120" height="40" as="geometry" />
        </mxCell>
        <mxCell id="Gl-4RDtrzEMA0AwHz98H-41" value="" style="edgeStyle=orthogonalEdgeStyle;rounded=0;orthogonalLoop=1;jettySize=auto;html=1;" parent="1" source="Gl-4RDtrzEMA0AwHz98H-39" target="Gl-4RDtrzEMA0AwHz98H-40" edge="1">
          <mxGeometry relative="1" as="geometry" />
        </mxCell>
        <mxCell id="Gl-4RDtrzEMA0AwHz98H-39" value="&lt;div&gt;选择&lt;/div&gt;&lt;div&gt;交叉&lt;/div&gt;&lt;div&gt;编译&lt;br&gt;&lt;/div&gt;" style="whiteSpace=wrap;html=1;aspect=fixed;" parent="1" vertex="1">
          <mxGeometry x="551" y="967.5" width="80" height="80" as="geometry" />
        </mxCell>
        <mxCell id="Gl-4RDtrzEMA0AwHz98H-42" style="edgeStyle=orthogonalEdgeStyle;rounded=0;orthogonalLoop=1;jettySize=auto;html=1;exitX=0;exitY=0.5;exitDx=0;exitDy=0;entryX=1;entryY=0.5;entryDx=0;entryDy=0;" parent="1" source="Gl-4RDtrzEMA0AwHz98H-40" target="Gl-4RDtrzEMA0AwHz98H-11" edge="1">
          <mxGeometry relative="1" as="geometry" />
        </mxCell>
        <mxCell id="Gl-4RDtrzEMA0AwHz98H-40" value="生成子代" style="whiteSpace=wrap;html=1;aspect=fixed;" parent="1" vertex="1">
          <mxGeometry x="552.25" y="851.25" width="77.5" height="77.5" as="geometry" />
        </mxCell>
        <mxCell id="Gl-4RDtrzEMA0AwHz98H-43" value="否" style="text;html=1;align=center;verticalAlign=middle;resizable=0;points=[];autosize=1;strokeColor=none;fillColor=none;" parent="1" vertex="1">
          <mxGeometry x="495" y="980" width="30" height="20" as="geometry" />
        </mxCell>
        <mxCell id="Gl-4RDtrzEMA0AwHz98H-44" value="是" style="text;html=1;align=center;verticalAlign=middle;resizable=0;points=[];autosize=1;strokeColor=none;fillColor=none;" parent="1" vertex="1">
          <mxGeometry x="416" y="1060" width="30" height="20" as="geometry" />
        </mxCell>
        <mxCell id="_EMdgMbQJmPedWMtAMaf-1" value="&lt;div&gt;方案评估&lt;/div&gt;" style="whiteSpace=wrap;html=1;rounded=0;spacingTop=0;spacingLeft=10;spacingBottom=0;spacingRight=10;" vertex="1" parent="1">
          <mxGeometry x="247" y="1169" width="120" height="40" as="geometry" />
        </mxCell>
        <mxCell id="_EMdgMbQJmPedWMtAMaf-20" style="edgeStyle=orthogonalEdgeStyle;rounded=0;orthogonalLoop=1;jettySize=auto;html=1;exitX=0.5;exitY=1;exitDx=0;exitDy=0;entryX=0.5;entryY=0;entryDx=0;entryDy=0;" edge="1" parent="1" source="_EMdgMbQJmPedWMtAMaf-7" target="_EMdgMbQJmPedWMtAMaf-18">
          <mxGeometry relative="1" as="geometry" />
        </mxCell>
        <mxCell id="_EMdgMbQJmPedWMtAMaf-21" style="edgeStyle=orthogonalEdgeStyle;rounded=0;orthogonalLoop=1;jettySize=auto;html=1;exitX=0.5;exitY=1;exitDx=0;exitDy=0;" edge="1" parent="1" source="_EMdgMbQJmPedWMtAMaf-7" target="_EMdgMbQJmPedWMtAMaf-19">
          <mxGeometry relative="1" as="geometry" />
        </mxCell>
        <mxCell id="_EMdgMbQJmPedWMtAMaf-7" value="小型道路清扫车设计调研" style="rounded=0;whiteSpace=wrap;html=1;" vertex="1" parent="1">
          <mxGeometry x="331" y="190" width="150" height="40" as="geometry" />
        </mxCell>
        <mxCell id="_EMdgMbQJmPedWMtAMaf-10" value="评估效率分析" style="whiteSpace=wrap;html=1;rounded=0;spacingTop=0;spacingLeft=10;spacingBottom=0;spacingRight=10;" vertex="1" parent="1">
          <mxGeometry x="446" y="1169" width="120" height="40" as="geometry" />
        </mxCell>
        <mxCell id="_EMdgMbQJmPedWMtAMaf-18" value="结构调研" style="rounded=0;whiteSpace=wrap;html=1;" vertex="1" parent="1">
          <mxGeometry x="247" y="270" width="120" height="30" as="geometry" />
        </mxCell>
        <mxCell id="_EMdgMbQJmPedWMtAMaf-24" value="" style="edgeStyle=orthogonalEdgeStyle;rounded=0;orthogonalLoop=1;jettySize=auto;html=1;endArrow=none;endFill=0;" edge="1" parent="1" source="_EMdgMbQJmPedWMtAMaf-19" target="_EMdgMbQJmPedWMtAMaf-18">
          <mxGeometry relative="1" as="geometry">
            <Array as="points">
              <mxPoint x="521" y="320" />
              <mxPoint x="307" y="320" />
            </Array>
          </mxGeometry>
        </mxCell>
        <mxCell id="_EMdgMbQJmPedWMtAMaf-19" value="设计要求调研" style="rounded=0;whiteSpace=wrap;html=1;" vertex="1" parent="1">
          <mxGeometry x="461" y="270" width="120" height="30" as="geometry" />
        </mxCell>
      </root>
    </mxGraphModel>
  </diagram>
</mxfile>
